<svg xmlns="http://www.w3.org/2000/svg" viewBox="0 0 240 260" width="240" height="260" role="img" aria-label="Kitaeru 鍛える"><title>Kitaeru 鍛える</title><g transform="translate(82 10) scale(0.76)"><path d="M8.2,7.07 8.51,7.12 10.02,7.15 11.53,6.98 13.04,7.14 14.54,7.06 16.05,6.86 17.56,6.83 19.07,6.79 20.58,6.95 22.09,6.9 23.6,6.88 25.11,6.93 26.61,6.94 28.12,6.82 29.63,6.78 31.14,6.88 32.65,6.98 34.16,6.9 35.67,6.95 37.18,6.92 38.68,6.81 40.19,6.91 41.7,6.87 43.21,6.88 44.72,6.91 46.23,6.73 47.74,6.84 49.25,7.06 50.75,6.95 52.26,7.06 53.77,7.16 55.28,7.08 56.79,7.25 58.3,7.2 59.81,7.26 61.32,7.14 62.82,7.23 64.33,7.14 65.84,7.19 67.35,7.19 68.86,7.23 70.37,7.25 71.88,7.26 73.39,7.15 74.89,7.29 76.4,7.22 77.91,7.31 79.42,7.29 80.93,7.25 82.44,7.3 83.95,7.22 85.46,7.3 86.96,7.18 88.47,7.16 89.98,7.12 91.49,7.27 93.22,8.2 93.19,8.5 93.2,10.01 93.29,11.51 93.26,13.01 93.12,14.52 93.04,16.02 93.11,17.52 93.22,19.03 93.02,20.53 93.02,22.03 93.02,23.54 93.03,25.04 92.85,26.54 93.01,28.04 92.88,29.55 92.83,31.05 92.8,32.55 92.92,34.06 92.92,35.56 92.94,37.06 93.03,38.57 93.14,40.07 92.99,41.57 93.17,43.08 93.06,44.58 93.06,46.08 93.01,47.59 93.19,49.09 93.2,50.59 93.29,52.1 93.16,53.6 93.27,55.1 93.15,56.61 93.09,58.11 93.27,59.61 93.05,61.11 91.8,62.62 92.19,64.12 92.86,65.62 92.99,67.13 92.84,68.63 92.95,70.13 92.86,71.64 92.93,73.14 92.93,74.64 93.03,76.15 92.9,77.65 93.03,79.15 91.95,80.66 92.54,82.16 93.04,83.66 93.1,85.17 93.06,86.67 92.96,88.17 92.84,89.68 92.85,91.18 92.84,92.68 92.92,94.18 92.86,95.69 92.94,97.19 91.95,98.69 91.39,100.2 91.96,101.7 92.89,103.2 92.98,104.71 91.89,106.21 91.35,107.71 91.97,109.22 92.94,110.72 92.92,112.22 92.89,113.73 92.79,115.23 92.9,116.73 92.91,118.24 92.88,119.74 92.97,121.24 92.95,122.75 92.88,124.25 92.96,125.75 92.95,127.25 92.88,128.76 92.88,130.26 92.73,131.76 92.82,133.27 92.92,134.77 92.85,136.27 92.89,137.78 92.79,139.28 92.82,140.78 92.87,142.29 92.85,143.79 92.86,145.29 93,146.8 92.77,148.3 92.73,149.8 92.73,151.31 92.65,152.81 92.64,154.31 92.76,155.82 92.78,157.32 92.81,158.82 92.88,160.32 92.72,161.83 92.87,163.33 92.97,164.83 92.98,166.34 92.92,167.84 92.89,169.34 92.94,170.85 92.85,172.35 92.78,173.85 92.76,175.36 92.92,176.86 92.86,178.36 92.72,179.87 92.76,181.37 92.84,182.87 92.82,184.38 92.84,185.88 92.46,187.38 92.15,188.89 92.69,190.39 93.21,191.89 93.13,193.39 93.02,194.9 93.07,196.4 92.6,197.9 92.04,199.41 92.39,200.91 92.99,202.41 92.98,203.92 92.95,205.42 93.03,206.92 93,208.43 92.89,209.93 92.98,211.43 92.82,212.94 92.77,214.44 92.69,215.94 92.83,217.45 92.62,218.95 92.66,220.45 92.82,221.96 92.8,223.46 92.86,224.96 92.93,226.46 93,227.97 93.13,229.47 93.08,230.97 93.11,232.48 93.08,233.98 93.1,235.48 92.96,236.99 92.96,238.49 92.96,239.99 92.73,241.5 91.8,243.01 91.49,242.92 89.98,243.07 88.47,243.09 86.96,242.98 85.46,242.96 83.95,243.1 82.44,243.09 80.93,242.99 79.42,243.17 77.91,243 76.4,243.14 74.89,242.95 73.39,242.92 71.88,242.9 70.37,242.83 68.86,242.84 67.35,242.84 65.84,242.94 64.33,242.94 62.82,243.12 61.32,243.05 59.81,243.16 58.3,243.17 56.79,243.25 55.28,243.32 53.77,243.23 52.26,243.23 50.75,243.19 49.25,243.08 47.74,243.03 46.23,243.09 44.72,242.38 43.21,241.9 41.7,242.4 40.19,241.97 38.68,241.43 37.18,242.15 35.67,243.25 34.16,243.28 32.65,243.3 31.14,243.16 29.63,243.08 28.12,243.07 26.61,242.27 25.11,242.56 23.6,243.07 22.09,243.1 20.58,243 19.07,242.97 17.56,242.97 16.05,243.09 14.54,243.04 13.04,243.08 11.53,243.08 10.02,243.02 8.51,242.91 7.2,241.8 7.35,241.5 7.31,239.99 7.2,238.49 7.04,236.99 7.07,235.48 7.09,233.98 7.08,232.48 6.89,230.97 6.91,229.47 6.86,227.97 7.01,226.46 6.81,224.96 6.98,223.46 6.81,221.96 6.82,220.45 7.01,218.95 6.97,217.45 6.8,215.94 6.89,214.44 7.07,212.94 7.04,211.43 7.05,209.93 7.11,208.43 7.03,206.92 7.03,205.42 7.18,203.92 7.15,202.41 6.99,200.91 7.04,199.41 7,197.9 6.76,196.4 6.86,194.9 6.86,193.39 6.91,191.89 6.81,190.39 6.99,188.89 6.85,187.38 6.89,185.88 6.98,184.38 7.01,182.87 7.04,181.37 7.14,179.87 6.96,178.36 7,176.86 7.19,175.36 7.21,173.85 7.17,172.35 7.15,170.85 7.15,169.34 7.18,167.84 7.2,166.34 7.22,164.83 7.06,163.33 7.22,161.83 7.08,160.32 7.25,158.82 7.27,157.32 7.24,155.82 7.06,154.31 7.19,152.81 7.22,151.31 7.05,149.8 7.06,148.3 7.1,146.8 7.04,145.29 7.06,143.79 7.08,142.29 7.05,140.78 6.92,139.28 6.89,137.78 7.02,136.27 7.15,134.77 7.03,133.27 7,131.76 7.12,130.26 7.07,128.76 7.01,127.25 7.12,125.75 7.09,124.25 7.22,122.75 7.17,121.24 7.23,119.74 7.25,118.24 7.29,116.73 7.31,115.23 7.19,113.73 7.24,112.22 7.07,110.72 7.06,109.22 7.13,107.71 7.14,106.21 7.2,104.71 7.05,103.2 6.88,101.7 6.96,100.2 6.75,98.69 6.81,97.19 6.8,95.69 6.67,94.18 7.44,92.68 8.02,91.18 7.64,89.68 6.75,88.17 7.02,86.67 6.87,85.17 6.92,83.66 6.9,82.16 7.06,80.66 8.01,79.15 8.38,77.65 7.85,76.15 7.03,74.64 6.88,73.14 6.9,71.64 6.79,70.13 6.87,68.63 6.94,67.13 6.91,65.62 7.05,64.12 7.08,62.62 7.07,61.11 6.99,59.61 7.04,58.11 7.14,56.61 7,55.1 6.97,53.6 7.07,52.1 7.03,50.59 8.1,49.09 7.82,47.59 7.31,46.08 7.28,44.58 7.26,43.08 7.29,41.57 7.04,40.07 7.19,38.57 7.14,37.06 6.88,35.56 7.06,34.06 6.92,32.55 6.83,31.05 6.99,29.55 6.97,28.04 7.02,26.54 7.13,25.04 6.99,23.54 7.09,22.03 7.24,20.53 7.13,19.03 7.12,17.52 7.08,16.02 7.2,14.52 7.11,13.01 7.19,11.51 7.11,10.01 7.28,8.5Z" fill="#E0503F"/><path d="M435 72Q413 72 413 52V-66L409 -63Q400 -58 398.5 -54.5Q397 -51 398 -43V-41Q398 -34 390 -30Q388 -29 385 -29Q378 -29 375 -35L350 -86Q321 -70 282.5 -47Q244 -24 209 -2Q174 20 153 34Q152 34 151 35Q142 41 139 44.5Q136 48 137 55V57Q137 64 130 68Q126 70 124 70Q119 70 116 65Q110 55 97 32.5Q84 10 71.5 -14.5Q59 -39 52 -52Q50 -57 52 -60Q54 -62 58 -63L88 -69L182 -86V-365H153Q153 -365 125.5 -364.5Q98 -364 66 -362L56 -401Q92 -397 122 -396Q152 -395 152 -395H182V-517H94Q81 -504 68.5 -491Q56 -478 42 -466Q26 -468 28 -481Q55 -518 78.5 -573Q102 -628 119 -687Q136 -746 143 -796L146 -825Q146 -831 149 -832Q153 -834 156 -833Q173 -830 197 -823Q221 -816 245 -808.5Q269 -801 286 -794Q297 -790 293 -777Q293 -773 290 -771Q341 -751 372.5 -720.5Q404 -690 404 -647Q403 -618 386.5 -602Q370 -586 351 -583Q350 -582 346 -582Q360 -571 374 -558Q388 -545 395 -537Q399 -533 399 -527Q399 -517 390 -517H280V-395H283Q296 -395 303 -405L331 -443Q337 -450 343 -450Q348 -450 352 -447Q366 -437 384.5 -419Q403 -401 413 -388V-662Q413 -704 411 -731Q409 -758 404 -771V-774Q404 -778 407 -781Q410 -784 415 -782Q424 -779 443 -771.5Q462 -764 482 -756.5Q502 -749 514 -743Q527 -756 538.5 -770.5Q550 -785 559 -798Q566 -807 568 -812Q573 -818 575 -818Q577 -818 583 -816Q592 -809 605.5 -799Q619 -789 631 -778Q630 -788 629 -795Q628 -802 626 -806Q624 -811 628 -815Q631 -817 636 -815Q647 -812 665 -804Q683 -796 702 -786.5Q721 -777 732 -771H748Q758 -771 762 -778Q764 -783 769 -791Q774 -799 777 -804Q783 -813 793 -809Q810 -803 836.5 -791Q863 -779 876 -770Q885 -766 885 -755Q885 -744 874 -740Q870 -739 866 -736Q854 -728 854 -706V-584Q854 -570 869 -570Q884 -570 891 -595Q894 -608 898.5 -627Q903 -646 908 -665.5Q913 -685 915 -696Q920 -699 924 -699Q932 -699 935 -693Q935 -685 934.5 -666Q934 -647 933.5 -628Q933 -609 932 -600Q932 -583 945 -579Q957 -575 965 -562Q973 -549 973 -535Q973 -515 962 -502Q951 -489 924 -482Q901 -477 867 -475Q833 -473 801 -474Q781 -475 771 -482.5Q761 -490 761 -508V-741H726V-694Q726 -619 707 -569.5Q688 -520 655.5 -488Q623 -456 583 -432Q576 -433 572.5 -438Q569 -443 570 -449Q590 -466 602.5 -485Q615 -504 622 -532H512V-361H518Q521 -361 524 -361.5Q527 -362 529 -365Q534 -373 543.5 -388Q553 -403 558 -411Q562 -418 569 -418Q574 -418 578 -414Q582 -411 587 -406Q592 -401 597 -396L593 -414Q628 -410 658.5 -409Q689 -408 689 -408H784Q793 -408 798 -413Q804 -420 814.5 -430.5Q825 -441 831 -447Q835 -452 840 -452Q845 -452 851 -449Q861 -444 877.5 -433.5Q894 -423 911 -412Q928 -401 939 -393Q945 -387 945 -378Q945 -372 942 -366.5Q939 -361 932 -360L920 -357Q904 -353 897 -332Q881 -279 860 -233.5Q839 -188 813 -150Q851 -119 894 -97.5Q937 -76 981 -62Q958 -52 935.5 -32Q913 -12 895 10.5Q877 33 869 51Q794 4 744 -69Q661 11 535 59Q529 57 526.5 51Q524 45 526 40Q588 6 632.5 -35Q677 -76 708 -131Q683 -184 669.5 -245.5Q656 -307 652 -377Q642 -376 633 -376Q624 -376 618 -375Q623 -369 627.5 -364Q632 -359 634 -356Q638 -349 638 -343Q638 -330 625 -330H512V-192L651 -215Q665 -210 658 -196Q636 -186 594.5 -165Q553 -144 512 -121V42Q512 55 487 63.5Q462 72 435 72ZM121 -547H268Q283 -547 290 -557Q295 -564 301.5 -573Q308 -582 313 -589Q313 -589 315 -591Q305 -599 305 -611Q302 -652 293 -689Q284 -726 258 -754L257 -752Q227 -695 193 -643Q159 -591 121 -547ZM512 -713V-562H518Q525 -562 529 -566Q534 -574 543.5 -589.5Q553 -605 558 -612Q562 -619 569 -619Q574 -619 578 -615Q587 -608 602.5 -592.5Q618 -577 627 -565Q631 -590 632.5 -621.5Q634 -653 634 -694Q634 -705 634 -715Q634 -725 633 -735H628Q621 -735 609 -732Q587 -726 561 -721.5Q535 -717 512 -713ZM120 -111Q106 -111 95 -120Q84 -129 85 -148Q87 -205 79 -247Q71 -289 51 -319Q52 -326 56.5 -330Q61 -334 67 -332Q112 -306 142 -266.5Q172 -227 172 -177Q172 -145 154.5 -128Q137 -111 120 -111ZM748 -216Q762 -251 772.5 -291.5Q783 -332 792 -378H680Q688 -329 705.5 -289Q723 -249 748 -216ZM411 -365H280V-168Q290 -196 298.5 -234Q307 -272 310 -307Q311 -312 311.5 -317.5Q312 -323 312 -328Q312 -334 315 -335Q317 -336 322 -336Q339 -331 367 -319.5Q395 -308 413 -299V-366Q413 -365 411 -365ZM280 -132V-103L338 -113Q333 -123 329 -132Q325 -141 323 -146Q322 -150 323 -153Q327 -157 329 -157L359 -163Q370 -166 384 -168.5Q398 -171 413 -174V-273H411Q404 -273 395 -260Q369 -223 337.5 -189Q306 -155 280 -132Z" transform="matrix(0.07 0 0 0.08 14.02 81.43)" fill="#FFF6EF"/><path d="M658 29Q586 29 549.5 -4.5Q513 -38 512 -124Q511 -182 498.5 -207.5Q486 -233 458 -233Q421 -233 368 -174Q328 -131 295.5 -87.5Q263 -44 245 -16Q227 11 202 11Q179 11 167 -13Q158 -31 158 -52Q158 -76 170.5 -99.5Q183 -123 208 -140Q235 -158 272 -192Q309 -226 349.5 -267Q390 -308 427 -348Q464 -388 491.5 -418.5Q519 -449 529 -461Q534 -468 534 -472Q534 -485 513 -482Q460 -473 410.5 -457.5Q361 -442 335 -431Q326 -427 314 -427Q293 -427 275.5 -441Q258 -455 250 -474Q242 -491 242 -508Q242 -521 246 -533Q250 -545 256 -558Q261 -563 266 -563Q273 -563 276 -558Q278 -540 292 -533Q306 -526 331 -526Q348 -526 378.5 -529Q409 -532 445 -537.5Q481 -543 516 -549.5Q551 -556 578 -564Q595 -569 608 -569Q633 -569 654.5 -554Q676 -539 688 -504Q691 -497 691 -488Q691 -475 683 -464Q675 -453 655 -448Q624 -440 592 -412.5Q560 -385 527.5 -350Q495 -315 463 -281Q471 -284 483.5 -285.5Q496 -287 506 -287Q544 -287 573 -261Q602 -235 602 -173Q602 -116 618 -95Q634 -74 669 -74Q698 -74 730.5 -80Q763 -86 782 -91Q787 -92 792.5 -93Q798 -94 805 -94Q830 -94 857 -81Q874 -74 881.5 -61.5Q889 -49 889 -36Q889 -20 878 -7Q867 6 846 11Q804 21 760.5 25Q717 29 658 29ZM406 -614Q399 -615 396 -620Q393 -625 394 -631Q403 -641 424.5 -659.5Q446 -678 462 -689Q433 -698 405 -724.5Q377 -751 366 -790Q371 -806 384 -800Q399 -783 442.5 -775.5Q486 -768 535 -771Q558 -773 574.5 -767Q591 -761 604 -750Q637 -723 637 -692Q637 -673 624.5 -660.5Q612 -648 589 -648Q586 -648 583 -648Q580 -648 576 -649Q564 -651 553 -652Q542 -653 531 -653Q500 -653 471 -643.5Q442 -634 406 -614Z" transform="matrix(0.09 0 0 0.08 4.17 157.63)" fill="#FFF6EF"/><path d="M527 11Q447 11 397 -16Q347 -43 347 -102Q347 -141 380 -170Q413 -199 474 -199Q514 -199 546.5 -185.5Q579 -172 597 -146.5Q615 -121 612 -85Q656 -106 686.5 -147.5Q717 -189 717 -247Q717 -324 671.5 -362Q626 -400 561 -400Q512 -400 461 -372.5Q410 -345 365.5 -297.5Q321 -250 290 -190Q281 -174 267 -166Q253 -158 239 -158Q216 -158 203 -174Q188 -192 188 -212Q188 -244 221 -274Q247 -298 280.5 -335Q314 -372 349.5 -415Q385 -458 418 -501Q451 -544 476.5 -580Q502 -616 516 -638Q519 -644 519 -649Q519 -657 513.5 -660.5Q508 -664 500 -660Q469 -646 433.5 -629.5Q398 -613 366 -613Q334 -613 315 -629Q296 -645 286 -667.5Q276 -690 271 -710Q273 -716 278.5 -718.5Q284 -721 289 -719Q298 -708 317 -707Q336 -706 355 -707Q360 -707 362 -707Q381 -707 413 -713.5Q445 -720 480.5 -731.5Q516 -743 544 -758Q553 -763 562 -765Q571 -767 580 -767Q597 -767 610.5 -762Q624 -757 634 -751Q655 -739 665.5 -722.5Q676 -706 676 -690Q676 -659 644 -644Q628 -636 606 -614.5Q584 -593 558.5 -563.5Q533 -534 508.5 -503.5Q484 -473 463.5 -446.5Q443 -420 431 -405Q461 -430 505.5 -444Q550 -458 594 -458Q664 -458 715 -428.5Q766 -399 794 -348.5Q822 -298 822 -236Q822 -163 787.5 -107Q753 -51 687.5 -20Q622 11 527 11ZM501 -67Q516 -71 523 -80.5Q530 -90 530 -101Q530 -116 517.5 -129Q505 -142 480 -142Q454 -142 439 -132.5Q424 -123 424 -107Q424 -89 444.5 -79.5Q465 -70 501 -67Z" transform="matrix(0.1 0 0 0.09 -0.76 232.04)" fill="#FFF6EF"/><path d="M52.11,191.25 51.91,191.83 50.96,191.82 50.49,191.25 50.98,190.39 51.94,190.45ZM65.98,46.71 65.39,47.36 64.75,47.18 64.87,46.35 65.49,46.08ZM37.91,34.68 37.48,35.33 36.62,35.29 36.27,34.68 36.51,33.87 37.29,34ZM55.99,18.11 55.61,18.56 55.1,18.48 55.12,17.79 55.61,17.6ZM25.4,159.25 25.22,160.08 24.46,159.7 23.73,159.25 24.34,158.58 25.07,158.72ZM33.99,178.61 33.94,179.16 33.15,179.4 32.82,178.61 33.29,178.13 33.8,178.19ZM31.17,198.88 30.83,199.23 30.09,199.51 29.79,198.88 30.24,198.52 30.77,198.47ZM52.46,74.29 52.4,74.71 52.04,74.61 51.77,74.29 52.01,74.02 52.39,73.87ZM82.8,146.2 82.6,146.76 81.75,147.25 81.18,146.58 81.28,145.72 81.73,145.53 82.4,145.53ZM51.79,130.03 51.46,130.34 51.15,130.32 50.89,130.2 50.96,129.9 51.21,129.52 51.49,129.76ZM19.95,38.29 19.79,38.96 18.8,38.56 18.83,37.8 19.65,37.64ZM68.42,64.96 67.85,65.54 67.38,65.54 67.09,64.96 67.3,64.27 68.07,64.44ZM17.11,179.03 16.86,179.35 16.41,179.45 16.06,179.2 16.07,178.86 16.43,178.65 16.85,178.71ZM29.93,95.96 29.87,96.3 29.54,96.38 29.17,96.1 29.23,95.83 29.53,95.61 29.94,95.54ZM81.87,104.94 81.21,105.56 80.53,105.3 80.54,104.67 81.31,104.35ZM50.8,97.45 50.57,97.96 49.92,98.18 49.72,97.45 49.78,96.97 50.59,96.8ZM37.83,203.5 37.62,204.24 36.73,204.34 36.04,203.78 36.4,203.15 36.81,202.6 37.41,202.68ZM37.34,226.8 37.27,227.3 36.57,227.32 36.23,226.8 36.61,226.13 37.17,226.28ZM29.8,201.44 29.35,201.93 28.73,201.96 28.15,201.8 28.05,201.14 28.73,200.69 29.19,200.74ZM68.68,66.19 68.54,66.58 67.99,66.54 67.83,66.19 68.04,65.62 68.51,65.88ZM83.86,124.29 83.61,124.59 83.17,124.47 83.21,124.01 83.63,123.92ZM42.12,73.87 42.12,74.48 41.58,74.36 41.14,74.21 41.01,73.55 41.64,73.34 42.1,73.46ZM68.47,123.48 67.81,124.43 66.75,123.83 66.9,123.15 67.88,122.45ZM62.8,116.57 62.52,116.99 61.81,117.02 61.59,116.85 61.5,116.26 61.88,116.02 62.26,116.22ZM17.12,116.65 16.84,117.06 16.04,117.42 15.54,117.01 15.71,116.23 16,116.1 16.85,115.98ZM63.1,201.2 62.8,201.91 62.13,202.07 61.42,201.52 61.62,200.8 62.06,200.43 62.74,200.51ZM57.48,183.68 57.16,184.12 56.79,183.93 56.63,183.68 56.79,183.33 57.22,183.28ZM29.93,43.32 29.62,43.6 29.24,43.51 29.28,43.11 29.59,43.02ZM68.05,168.31 67.7,168.71 67.35,168.68 67.09,168.5 67.03,168.16 67.3,167.86 67.66,167.95ZM56.33,209.11 56.05,209.38 55.65,209.48 55.35,209.11 55.69,208.65 56.11,208.83ZM65.85,113.6 65.64,113.94 65.26,113.78 65.33,113.41 65.67,113.17ZM67.21,223.09 67.02,223.45 66.64,223.28 66.68,222.78 67.07,222.66ZM16.96,216.42 16.86,216.66 16.56,216.85 16.46,216.51 16.43,216.25 16.56,216.07 16.8,216.2ZM71.43,197.38 71.14,197.63 70.85,197.86 70.54,197.57 70.52,197.25 70.84,197.02 71.24,197.12ZM53.82,153.6 53.58,153.95 52.84,154.17 52.59,153.87 52.58,153.37 52.81,152.79 53.4,153.08ZM57.17,85.61 56.85,85.87 56.45,85.82 56.39,85.61 56.46,85.22 56.91,85.31ZM33.29,76.15 33,76.67 32.57,76.51 32.42,75.92 33.02,75.61ZM17.07,183.32 17,183.72 16.53,183.94 16.1,183.61 16.15,183.06 16.49,182.99 16.83,183.04ZM45.72,24.01 45.64,24.61 44.95,24.69 44.39,24.24 44.56,23.72 44.99,23.59 45.47,23.46ZM41.82,168.59 41.25,169.27 40.78,169.32 40.3,168.79 40.43,168.23 40.84,167.8 41.4,168.1ZM23.44,183.11 22.86,183.71 22.33,183.8 21.85,183.35 22.03,182.91 22.32,182.6 23.05,182.5ZM37.12,210.28 36.95,210.57 36.46,210.42 36.57,210.07 36.96,209.89ZM27.81,157.11 27.48,157.43 26.94,157.38 26.95,157.11 26.96,156.79 27.53,156.6ZM57.37,100.52 56.74,101.03 55.74,100.88 55.74,100.06 56.78,99.95ZM22.6,152.5 22.43,153.03 21.65,153.26 20.86,152.77 21.21,152.19 21.56,151.85 22.16,151.93ZM53.53,65.1 53.15,65.96 52.41,65.48 52.31,64.75 53.18,64.56ZM58.42,140.2 58.24,140.86 57.69,140.44 57.55,139.81 58.14,139.7ZM37.94,225.09 37.58,225.59 36.84,225.7 36.75,224.55 37.53,224.18ZM33.99,34.03 33.82,34.65 33.14,34.83 32.56,34.03 33,33.46 33.85,33.29ZM56.04,147.11 55.62,147.59 55.21,147.67 54.8,147.11 55.1,146.78 55.62,146.82ZM48.35,147.97 48.15,148.38 47.89,148.11 47.79,147.8 48.19,147.77ZM21.02,120.67 20.23,121.19 19.56,121.21 19.2,120.08 20.19,119.69ZM49.7,153.92 49.54,154.26 49.11,154.72 48.74,154.21 48.59,153.63 49.14,153.27 49.66,153.53ZM24.65,29.46 24.73,30.13 24.04,29.95 23.68,29.66 23.66,29.12 24.09,28.58 24.56,28.94ZM53.54,129.53 53.52,130.07 52.95,130.41 52.53,129.82 52.5,129.33 52.89,128.68 53.36,129.09ZM22.04,136.92 22.02,137.3 21.53,137.26 21.15,137.21 21.22,136.72 21.47,136.37 21.99,136.67ZM74.86,230.56 74.83,230.91 74.26,230.94 74.12,230.56 74.32,229.98 74.72,230.07ZM39.8,80.26 39.32,80.93 38.43,80.6 38.46,79.91 39.38,79.65ZM35.69,171.67 34.95,172.18 34.19,172.04 33.97,171.2 35.03,171.15ZM46.28,104.75 45.72,105.19 44.97,105.13 44.99,104.43 45.78,104.27Z" fill="#E0503F"/></g><g fill="#EFEAE0"><path d="M36 0Q23 0 23 -16Q23 -29 36 -29Q79 -29 95 -42.5Q111 -56 111 -90V-638Q111 -667 98 -682.5Q85 -698 42 -698Q27 -698 27 -712Q27 -726 42 -726Q46 -726 62 -725.5Q78 -725 99 -725Q120 -725 140 -724.5Q160 -724 172 -724Q184 -724 204 -724.5Q224 -725 245 -725Q266 -725 282 -725.5Q298 -726 302 -726Q316 -726 316 -712Q316 -698 302 -698Q259 -698 246 -682.5Q233 -667 233 -638V-376Q292 -434 329 -471.5Q366 -509 388 -533Q410 -557 423.5 -571.5Q437 -586 447 -598Q460 -612 470 -629.5Q480 -647 480 -660Q480 -674 465.5 -686Q451 -698 425 -698Q412 -698 412 -712Q412 -726 425 -726Q436 -726 466 -725Q496 -724 548 -724Q598 -724 628.5 -725Q659 -726 669 -726Q684 -726 684 -712Q684 -698 669 -698Q647 -698 614.5 -680.5Q582 -663 548 -637Q514 -611 485 -583Q472 -570 445.5 -543Q419 -516 378 -475Q387 -459 408 -421.5Q429 -384 456.5 -335.5Q484 -287 512 -238Q540 -189 563 -149Q586 -109 599 -88Q617 -60 628.5 -47.5Q640 -35 652 -32Q664 -29 682 -29Q696 -29 696 -16Q696 0 682 0Q672 0 641 -1.5Q610 -3 559 -3Q530 -3 501.5 -2.5Q473 -2 452.5 -1Q432 0 425 0Q412 0 412 -16Q412 -29 425 -29Q474 -29 474 -48Q474 -51 468.5 -62.5Q463 -74 455 -90Q448 -104 430.5 -137Q413 -170 391.5 -210.5Q370 -251 349 -290Q328 -329 313.5 -357.5Q299 -386 296 -394L233 -328V-90Q233 -58 247.5 -43.5Q262 -29 307 -29Q313 -29 317 -25Q321 -21 321 -16Q321 0 307 0Q302 0 285 -0.5Q268 -1 246.5 -1.5Q225 -2 204.5 -2.5Q184 -3 172 -3Q160 -3 139.5 -2.5Q119 -2 97 -1.5Q75 -1 58 -0.5Q41 0 36 0Z" transform="translate(35.59 248) scale(0.03)"/><path d="M45 0Q32 0 32 -16Q32 -29 45 -29Q97 -29 120 -40Q143 -51 143 -87V-641Q143 -674 121.5 -686Q100 -698 45 -698Q32 -698 32 -712Q32 -726 45 -726Q62 -726 89.5 -725Q117 -724 148 -723.5Q179 -723 205 -723Q230 -723 261.5 -723.5Q293 -724 321.5 -725Q350 -726 366 -726Q381 -726 381 -712Q381 -698 366 -698Q313 -698 290.5 -686Q268 -674 268 -641V-87Q268 -51 292 -40Q316 -29 366 -29Q381 -29 381 -16Q381 0 366 0Q350 0 321.5 -1Q293 -2 261.5 -3Q230 -4 205 -4Q179 -4 148 -3Q117 -2 89.5 -1Q62 0 45 0Z" transform="translate(61.35 248) scale(0.03)"/><path d="M193 0Q180 0 180 -14Q180 -29 193 -29Q249 -29 268 -45Q287 -61 287 -90V-695H206Q168 -695 141 -677.5Q114 -660 96 -633.5Q78 -607 67 -581Q56 -555 50 -537Q48 -531 44 -530Q40 -529 33 -530Q32 -530 31 -530Q25 -531 24 -534.5Q23 -538 23 -542Q23 -546 24 -568Q25 -590 26.5 -618Q28 -646 29 -670Q30 -694 30 -703Q30 -726 56 -726Q61 -726 99 -725Q137 -724 201.5 -723.5Q266 -723 350 -723Q434 -723 498.5 -723.5Q563 -724 602 -725Q641 -726 646 -726Q670 -726 671 -702Q671 -695 672.5 -671.5Q674 -648 675 -619.5Q676 -591 677 -568.5Q678 -546 678 -542Q678 -536 677 -533.5Q676 -531 668 -530Q667 -530 665 -529Q661 -529 658 -529.5Q655 -530 651 -538Q643 -555 631.5 -581Q620 -607 602.5 -633Q585 -659 559 -677Q533 -695 495 -695H407V-90Q407 -73 412.5 -59Q418 -45 437.5 -37Q457 -29 498 -29Q513 -29 513 -14Q513 0 498 0Q488 0 448.5 -1.5Q409 -3 347 -3Q285 -3 244.5 -1.5Q204 0 193 0Z" transform="translate(78.13 248) scale(0.03)"/><path d="M31 0Q18 0 18 -13Q18 -29 31 -29Q66 -29 86 -41.5Q106 -54 122 -89Q130 -105 145.5 -143Q161 -181 181.5 -234Q202 -287 225 -347Q248 -407 271 -467Q294 -527 313.5 -578.5Q333 -630 346.5 -667Q360 -704 365 -717Q370 -730 376.5 -734Q383 -738 399 -738Q415 -738 422 -734Q429 -730 434 -717Q442 -697 459.5 -652Q477 -607 500 -548Q523 -489 548 -424.5Q573 -360 596.5 -299Q620 -238 639 -188.5Q658 -139 669 -112Q687 -66 707.5 -47.5Q728 -29 747 -29Q760 -29 760 -13Q760 0 747 0Q737 0 706 -0.5Q675 -1 623 -1Q580 -1 541 -0.5Q502 0 492 0Q479 0 479 -13Q479 -29 492 -29Q524 -29 536.5 -39.5Q549 -50 549 -64.5Q549 -79 544 -89Q543 -91 537 -109Q531 -127 522.5 -152.5Q514 -178 505 -203.5Q496 -229 490 -247H220Q214 -227 204.5 -196.5Q195 -166 187.5 -137Q180 -108 180 -90Q180 -53 198.5 -41Q217 -29 250 -29Q263 -29 263 -13Q263 0 250 0Q240 0 212.5 -0.5Q185 -1 141 -1Q102 -1 72 -0.5Q42 0 31 0ZM233 -280H477L360 -610Z" transform="translate(103.47 248) scale(0.03)"/><path d="M47 0Q34 0 34 -16Q34 -29 47 -29Q103 -29 122.5 -43Q142 -57 142 -90V-638Q142 -668 124 -683Q106 -698 52 -698Q39 -698 39 -713Q39 -726 52 -726Q60 -726 128.5 -725Q197 -724 330 -724Q456 -724 521 -725Q586 -726 595 -726Q618 -726 619 -703Q621 -694 622 -673.5Q623 -653 624 -630Q625 -607 625.5 -589Q626 -571 626 -566Q626 -562 624 -557.5Q622 -553 615 -553Q608 -553 604.5 -554.5Q601 -556 598 -563Q586 -590 567.5 -620.5Q549 -651 518.5 -673Q488 -695 439 -695H263V-387H327Q369 -387 391 -405Q413 -423 423.5 -447Q434 -471 441 -488Q444 -496 446.5 -499.5Q449 -503 457 -503Q464 -503 466.5 -498Q469 -493 469 -488Q469 -480 468.5 -459.5Q468 -439 467.5 -415Q467 -391 467 -371Q467 -352 467.5 -325.5Q468 -299 468.5 -277.5Q469 -256 469 -249Q469 -234 457 -234Q446 -234 442 -247Q435 -266 424 -291.5Q413 -317 391 -336.5Q369 -356 327 -356H263V-52Q263 -33 283 -33H418Q466 -33 499 -50.5Q532 -68 553.5 -94.5Q575 -121 587 -147.5Q599 -174 605 -192Q608 -201 611.5 -202Q615 -203 622 -202Q623 -202 623 -202Q631 -201 632 -197Q633 -193 633 -188Q633 -184 632.5 -163Q632 -142 631.5 -114.5Q631 -87 630.5 -63.5Q630 -40 630 -31Q630 -18 622.5 -9Q615 0 601 0Q594 0 570 -1Q546 -2 491 -2.5Q436 -3 337 -3Q215 -3 136.5 -1.5Q58 0 47 0Z" transform="translate(130.99 248) scale(0.03)"/><path d="M577 8Q538 8 513.5 -11.5Q489 -31 473.5 -63Q458 -95 448 -133Q438 -171 429.5 -209Q421 -247 409 -279Q397 -311 377.5 -330.5Q358 -350 326 -350H235V-90Q235 -70 240.5 -56Q246 -42 264 -35.5Q282 -29 319 -29Q332 -29 332 -14Q332 -9 328.5 -4.5Q325 0 319 0Q309 0 269.5 -1.5Q230 -3 175 -3Q123 -3 85.5 -1.5Q48 0 37 0Q24 0 24 -14Q24 -29 37 -29Q74 -29 90 -36Q106 -43 110 -56.5Q114 -70 114 -90V-638Q114 -656 109.5 -669Q105 -682 89.5 -689.5Q74 -697 39 -697Q32 -697 28.5 -701.5Q25 -706 25 -711Q25 -726 39 -726Q46 -726 84.5 -724.5Q123 -723 175 -723Q258 -723 313 -724.5Q368 -726 404 -726Q465 -726 515.5 -707.5Q566 -689 597 -649Q628 -609 628 -544Q628 -493 604.5 -459.5Q581 -426 546.5 -407Q512 -388 478 -378Q444 -368 422 -363Q467 -357 494.5 -332.5Q522 -308 538 -273.5Q554 -239 563.5 -201.5Q573 -164 581 -132Q589 -100 601.5 -79.5Q614 -59 636 -59Q645 -59 654 -63.5Q663 -68 673 -79Q678 -85 682 -87Q686 -89 692 -84Q697 -80 696.5 -75Q696 -70 693 -63Q683 -41 652.5 -16.5Q622 8 577 8ZM235 -383H342Q416 -383 455 -423Q494 -463 494 -544Q494 -611 461.5 -653Q429 -695 363 -695H235Z" transform="translate(155.7 248) scale(0.03)"/><path d="M379 12Q297 12 235 -9Q173 -30 138.5 -77Q104 -124 104 -200V-639Q104 -664 92.5 -681Q81 -698 34 -698Q20 -698 20 -713Q20 -726 34 -726Q42 -726 68.5 -725.5Q95 -725 148 -725Q184 -725 217 -725.5Q250 -726 273 -726Q296 -726 301 -726Q314 -726 314 -713Q314 -698 301 -698Q252 -698 238.5 -680.5Q225 -663 225 -639V-232Q225 -175 237.5 -132.5Q250 -90 285.5 -66Q321 -42 388 -42Q450 -42 489.5 -62Q529 -82 551 -116Q573 -150 581.5 -193.5Q590 -237 590 -285V-569Q590 -606 582 -635Q574 -664 553.5 -681Q533 -698 493 -698Q478 -698 478 -713Q478 -726 493 -726Q502 -726 533.5 -725.5Q565 -725 611 -725Q652 -725 682.5 -725.5Q713 -726 723 -726Q738 -726 738 -713Q738 -698 723 -698Q697 -698 675.5 -686.5Q654 -675 641 -647Q628 -619 628 -568V-263Q628 -182 604 -120Q580 -58 525.5 -23Q471 12 379 12Z" transform="translate(181.72 248) scale(0.03)"/></g></svg>
